<svg width="132" height="41" viewBox="0 0 132 41" xmlns="http://www.w3.org/2000/svg"><g fill="none" fill-rule="evenodd"><path d="M12.58 4.993l-1.153 5.837H23.91l-.96 4.84h-12.52l-1.23 6.221h14.672l-1.037 4.993H2.018L7.395 0H27.71l-1.037 4.993H12.58zM39.376 9.27c1.936 0 3.474.51 4.614 1.532 1.14 1.022 1.71 2.479 1.71 4.371 0 .71-.076 1.41-.226 2.097l-1.936 9.614h-5.033l1.871-9.291c.087-.366.13-.764.13-1.194 0-.903-.248-1.591-.742-2.064-.495-.474-1.237-.71-2.226-.71-1.29 0-2.36.37-3.21 1.113-.85.742-1.425 1.855-1.726 3.339l-1.742 8.807h-5.033L29.28 9.528h4.774l-.387 1.87c1.549-1.419 3.452-2.128 5.71-2.128zm16.788 17.872c-1.742 0-3.274-.323-4.597-.968-1.323-.645-2.344-1.554-3.065-2.726-.72-1.172-1.08-2.532-1.08-4.08 0-1.915.451-3.635 1.355-5.162.903-1.528 2.15-2.732 3.742-3.614 1.591-.881 3.387-1.322 5.387-1.322 1.764 0 3.302.322 4.614.967 1.312.646 2.328 1.554 3.048 2.726.72 1.173 1.081 2.533 1.081 4.081 0 1.915-.446 3.635-1.339 5.162-.892 1.527-2.14 2.732-3.742 3.613-1.602.882-3.403 1.323-5.404 1.323zm.323-4.162c.968 0 1.839-.241 2.613-.725s1.377-1.156 1.807-2.017c.43-.86.645-1.85.645-2.968 0-1.183-.344-2.118-1.032-2.806-.689-.689-1.657-1.033-2.904-1.033-.99 0-1.871.242-2.645.726-.775.484-1.377 1.156-1.807 2.016-.43.86-.645 1.85-.645 2.968 0 1.183.35 2.119 1.048 2.807.7.688 1.673 1.032 2.92 1.032zm16.82 4.162c-1.505 0-2.93-.167-4.274-.5-1.345-.333-2.393-.769-3.146-1.307l1.936-3.645c.753.495 1.672.893 2.758 1.194 1.086.3 2.178.451 3.275.451 1.14 0 1.989-.145 2.548-.435.56-.29.839-.705.839-1.242 0-.43-.247-.742-.742-.936-.495-.193-1.29-.398-2.387-.613-1.248-.236-2.275-.494-3.081-.774a5.123 5.123 0 01-2.097-1.371c-.592-.635-.887-1.5-.887-2.597 0-1.914.8-3.409 2.403-4.484 1.602-1.076 3.705-1.613 6.307-1.613 1.204 0 2.377.129 3.516.387 1.14.258 2.108.613 2.904 1.064L81.373 14.4c-1.42-.882-3.129-1.323-5.13-1.323-1.096 0-1.93.162-2.5.484-.57.323-.854.732-.854 1.226 0 .452.247.78.742.984.494.204 1.322.425 2.484.662 1.226.236 2.231.489 3.016.758a4.96 4.96 0 012.049 1.338c.58.624.87 1.474.87 2.55 0 1.935-.811 3.43-2.435 4.483-1.624 1.054-3.726 1.581-6.307 1.581zM86.354 9.528h5l-3.452 17.356h-5l3.452-17.356zm3.355-2.42c-.86 0-1.565-.253-2.113-.758-.549-.505-.823-1.124-.823-1.855 0-.86.307-1.575.92-2.145.613-.57 1.414-.855 2.403-.855.882 0 1.597.242 2.145.726.549.484.823 1.08.823 1.79 0 .925-.312 1.672-.936 2.242-.623.57-1.43.855-2.42.855zm14.594 9.969l5.968 9.807h-5.839l-4.13-6.742-3.064 2.548-.839 4.194h-5.033l4.775-23.938h5.033l-2.678 13.389 8.323-6.807h6.55l-9.066 7.549zm26.982-7.55l-3.451 17.357h-4.775l.323-1.71c-1.441 1.312-3.216 1.968-5.324 1.968-1.354 0-2.602-.312-3.742-.935-1.14-.624-2.048-1.522-2.726-2.694-.677-1.172-1.016-2.554-1.016-4.146 0-1.914.425-3.64 1.274-5.178.85-1.537 2.006-2.742 3.468-3.613 1.463-.87 3.076-1.306 4.84-1.306 2.666 0 4.548.87 5.645 2.613l.452-2.355h5.032zM119.607 22.98c.99 0 1.871-.241 2.645-.725.775-.484 1.377-1.156 1.807-2.017.43-.86.645-1.85.645-2.968 0-1.183-.35-2.118-1.048-2.806-.7-.689-1.672-1.033-2.92-1.033-.99 0-1.871.242-2.645.726-.775.484-1.377 1.156-1.807 2.016-.43.86-.645 1.85-.645 2.968 0 1.183.35 2.119 1.048 2.807.7.688 1.673 1.032 2.92 1.032z" fill="#07689F" fill-rule="nonzero"/><path d="M107.402 30.494h1.46l-2.044 10.216h-1.46l2.044-10.216zm6.29 1.27h-3.488l.248-1.27h8.45l-.263 1.27h-3.488l-1.795 8.946h-1.445l1.78-8.946zm7.91 9.063a6.944 6.944 0 01-2.197-.35c-.705-.234-1.247-.53-1.627-.89l.642-1.168c.39.36.88.644 1.474.854.594.209 1.207.313 1.84.313.836 0 1.505-.153 2.006-.46.5-.306.751-.732.751-1.276a.99.99 0 00-.291-.73 2.17 2.17 0 00-.716-.467 13.543 13.543 0 00-1.196-.409 14.026 14.026 0 01-1.576-.554 2.774 2.774 0 01-1.03-.781c-.286-.346-.43-.8-.43-1.365 0-.642.18-1.201.54-1.678.36-.477.861-.844 1.503-1.102.642-.258 1.377-.387 2.204-.387a7.01 7.01 0 011.802.227 5.08 5.08 0 011.482.634l-.584 1.197a4.138 4.138 0 00-1.277-.613 5.368 5.368 0 00-1.496-.204c-.837 0-1.503.163-2 .489-.496.326-.744.761-.744 1.306 0 .302.1.555.3.759.199.204.447.365.744.481.297.117.703.253 1.218.41.643.194 1.16.376 1.555.546.394.17.73.421 1.007.752.277.33.416.759.416 1.284 0 .652-.183 1.216-.548 1.693-.364.477-.873.844-1.525 1.102-.652.258-1.4.387-2.247.387z" fill="#E57A67" fill-rule="nonzero"/><path fill="#07689F" d="M.904 32.914h98.71l-.905 4.07H0z"/></g></svg>