<svg width="78" height="78" viewBox="0 0 78 78" xmlns="http://www.w3.org/2000/svg"><path d="M60.624.537c7.764.078 14.804 5.945 16.438 13.562.282 1.316.446 2.647.446 3.994.001 9.362.046 18.725-.016 28.086-.055 8.143-5.555 14.957-13.479 16.873-1.449.35-2.925.46-4.414.458-5.07-.008-10.141.006-15.211-.014-.574-.003-1.035.15-1.504.464-6.4 4.278-12.823 8.524-19.212 12.818-2.456 1.65-4.969.213-5.522-1.72-.144-.505-.157-1.022-.158-1.539-.004-3.09-.015-6.179.01-9.268.004-.567-.137-.761-.74-.775C9.247 63.301 2.113 57.102.775 49.21a20.962 20.962 0 01-.278-3.515C.496 36.262.439 26.83.513 17.397.551 12.594 2.51 8.554 5.992 5.259c2.585-2.446 5.647-3.947 9.156-4.532 1.094-.182 2.2-.224 3.31-.223 6.863.005 13.725.002 20.588.002v.015c7.193 0 14.386-.057 21.578.016zM18.347 7.483c-1.296 0-2.587.15-3.822.59-4.307 1.533-7.05 5.468-7.056 10.155-.008 8.867 0 17.733-.004 26.6 0 .849.034 1.694.117 2.541.386 3.97 3.7 7.793 7.584 8.77 1.973.497 3.981.46 5.977.379 2.41-.097 3.932 1.803 3.867 3.887-.071 2.307-.016 4.618-.016 7.053.312-.198.51-.317.701-.446 4.725-3.185 9.46-6.355 14.166-9.567.938-.64 1.9-.928 3.034-.921 5.541.031 11.083.022 16.625.009 1.322-.003 2.636-.134 3.895-.576 4.362-1.532 7.117-5.483 7.122-10.26.012-9.101.008-18.204-.004-27.306-.001-.704-.055-1.418-.183-2.11-.984-5.317-5.196-8.797-10.687-8.802-13.772-.012-27.544-.008-41.316.004zm20.68 35.054c1.933.007 3.515 1.59 3.495 3.5-.02 1.928-1.593 3.463-3.541 3.456-1.939-.008-3.518-1.589-3.498-3.502.02-1.926 1.595-3.461 3.543-3.454zM41.2 15.285c.895.7 1.313 1.664 1.316 2.773.015 5.796.025 11.593-.004 17.39-.01 2.042-1.58 3.57-3.528 3.56-1.95-.01-3.478-1.552-3.495-3.597-.025-2.898-.006-5.796-.007-8.694 0-2.875-.02-5.75.007-8.625.015-1.489.687-2.638 2.066-3.264 1.285-.583 2.528-.418 3.645.457z" fill="#F5684F" fill-rule="evenodd"/></svg>